<svg version="1.1" xmlns="http://www.w3.org/2000/svg" xmlns:xlink="http://www.w3.org/1999/xlink" stroke-linecap="round" stroke-linejoin="round" stroke-width="0" fill-rule="evenodd" clip-rule="evenodd" id="ulKoPfDzOP86OVklBn_3_bottom" viewBox="91285 -103200 85000 55000" width="85mm" height="55mm" class="w-100 h-100"><defs><style>.ulKoPfDzOP86OVklBn_3_fr4 {color: #666666;}
.ulKoPfDzOP86OVklBn_3_cu {color: #cccccc;}
.ulKoPfDzOP86OVklBn_3_cf {color: #cc9933;}
.ulKoPfDzOP86OVklBn_3_sm {color: #ffffff; opacity: 0.75;}
.ulKoPfDzOP86OVklBn_3_ss {color: #000000;}
.ulKoPfDzOP86OVklBn_3_sp {color: #999999;}
.ulKoPfDzOP86OVklBn_3_out {color: #000000;}</style><circle cx="0" cy="0" r="1500" id="fD7j-2WSMvZTTjd76AVQ_pad-10"/><rect x="-1500" y="-1500" width="3000" height="3000" id="fD7j-2WSMvZTTjd76AVQ_pad-11"/><circle cx="0" cy="0" r="3500" id="fD7j-2WSMvZTTjd76AVQ_pad-12"/><circle cx="0" cy="0" r="1000" id="fD7j-2WSMvZTTjd76AVQ_pad-13"/><circle cx="0" cy="0" r="19.7" id="HpYcuJmt3rScrIUtS20-_pad-1"/><circle cx="0" cy="0" r="29.55" id="q8-zt-mq-hOISb02xBlO_pad-1"/><circle cx="0" cy="0" r="118.1" id="q8-zt-mq-hOISb02xBlO_pad-2"/><g id="ulKoPfDzOP86OVklBn_3_bottom_copper"><use xlink:href="#fD7j-2WSMvZTTjd76AVQ_pad-10" x="163195" y="-69045"/><use xlink:href="#fD7j-2WSMvZTTjd76AVQ_pad-11" x="163195" y="-89535"/><use xlink:href="#fD7j-2WSMvZTTjd76AVQ_pad-12" x="95885" y="-75565"/><use xlink:href="#fD7j-2WSMvZTTjd76AVQ_pad-13" x="100965" y="-91440"/><use xlink:href="#fD7j-2WSMvZTTjd76AVQ_pad-13" x="100965" y="-86360"/><use xlink:href="#fD7j-2WSMvZTTjd76AVQ_pad-13" x="146685" y="-86360"/></g><g id="ulKoPfDzOP86OVklBn_3_bottom_soldermask"><path d="M 101315.026 -90286.115 101533.412 -90376.573 101729.958 -90507.901 101897.099 -90675.042 102028.427 -90871.588 102118.885 -91089.974 102165 -91321.809 102165 -91558.191 102118.885 -91790.026 102028.427 -92008.412 101897.099 -92204.958 101729.958 -92372.099 101533.412 -92503.427 101315.026 -92593.885 101083.191 -92640 100846.809 -92640 100614.974 -92593.885 100396.588 -92503.427 100200.042 -92372.099 100032.901 -92204.958 99901.573 -92008.412 99811.115 -91790.026 99765 -91558.191 99765 -91321.809 99811.115 -91089.974 99901.573 -90871.588 100032.901 -90675.042 100200.042 -90507.901 100396.588 -90376.573 100614.974 -90286.115 100846.809 -90240 101083.191 -90240 101315.026 -90286.115 101315.026 -90286.115"/><path d="M 164895 -91235 161495 -91235 161495 -87835 164895 -87835 164895 -91235 164895 -91235"/><path d="M 147035.026 -85206.115 147253.412 -85296.573 147449.958 -85427.901 147617.099 -85595.042 147748.427 -85791.588 147838.885 -86009.974 147885 -86241.809 147885 -86478.191 147838.885 -86710.026 147748.427 -86928.412 147617.099 -87124.958 147449.958 -87292.099 147253.412 -87423.427 147035.026 -87513.885 146803.191 -87560 146566.809 -87560 146334.974 -87513.885 146116.588 -87423.427 145920.042 -87292.099 145752.901 -87124.958 145621.573 -86928.412 145531.115 -86710.026 145485 -86478.191 145485 -86241.809 145531.115 -86009.974 145621.573 -85791.588 145752.901 -85595.042 145920.042 -85427.901 146116.588 -85296.573 146334.974 -85206.115 146566.809 -85160 146803.191 -85160 147035.026 -85206.115 147035.026 -85206.115"/><path d="M 101315.026 -85206.115 101533.412 -85296.573 101729.958 -85427.901 101897.099 -85595.042 102028.427 -85791.588 102118.885 -86009.974 102165 -86241.809 102165 -86478.191 102118.885 -86710.026 102028.427 -86928.412 101897.099 -87124.958 101729.958 -87292.099 101533.412 -87423.427 101315.026 -87513.885 101083.191 -87560 100846.809 -87560 100614.974 -87513.885 100396.588 -87423.427 100200.042 -87292.099 100032.901 -87124.958 99901.573 -86928.412 99811.115 -86710.026 99765 -86478.191 99765 -86241.809 99811.115 -86009.974 99901.573 -85791.588 100032.901 -85595.042 100200.042 -85427.901 100396.588 -85296.573 100614.974 -85206.115 100846.809 -85160 101083.191 -85160 101315.026 -85206.115 101315.026 -85206.115"/><path d="M 96964.249 -72007.188 97358.693 -72170.572 97637.607 -72286.102 98239.531 -72688.295 98243.616 -72691.024 98758.976 -73206.384 98758.978 -73206.387 99163.898 -73812.393 99163.898 -73812.394 99442.812 -74485.751 99585 -75200.58 99585 -75929.42 99442.812 -76644.249 99279.428 -77038.693 99163.898 -77317.607 98761.705 -77919.531 98758.976 -77923.616 98243.616 -78438.976 98243.613 -78438.978 97637.607 -78843.898 97358.693 -78959.428 96964.249 -79122.812 96249.42 -79265 95520.58 -79265 94805.751 -79122.812 94411.307 -78959.428 94132.393 -78843.898 93526.387 -78438.978 93526.384 -78438.976 93011.024 -77923.616 93008.295 -77919.531 92606.102 -77317.607 92490.572 -77038.693 92327.188 -76644.249 92185 -75929.42 92185 -75200.58 92327.188 -74485.751 92606.102 -73812.394 92606.102 -73812.393 93011.022 -73206.387 93011.024 -73206.384 93526.384 -72691.024 93530.469 -72688.295 94132.393 -72286.102 94411.307 -72170.572 94805.751 -72007.188 95520.58 -71865 96249.42 -71865 96964.249 -72007.188 96964.249 -72007.188"/><path d="M 163581.393 -67388.553 163690.872 -67410.33 164000.252 -67538.479 164278.687 -67724.523 164515.477 -67961.313 164701.521 -68239.748 164829.67 -68549.128 164895 -68877.565 164895 -69212.435 164829.67 -69540.872 164701.521 -69850.252 164515.477 -70128.687 164278.687 -70365.477 164000.252 -70551.521 163690.872 -70679.67 163581.393 -70701.447 163362.437 -70745 163027.563 -70745 162808.607 -70701.447 162699.128 -70679.67 162389.748 -70551.521 162111.313 -70365.477 161874.523 -70128.687 161688.479 -69850.252 161560.33 -69540.872 161495 -69212.435 161495 -68877.565 161560.33 -68549.128 161688.479 -68239.748 161874.523 -67961.313 162111.313 -67724.523 162389.748 -67538.479 162699.128 -67410.33 162808.607 -67388.553 163027.563 -67345 163362.437 -67345 163581.393 -67388.553 163581.393 -67388.553"/></g><g id="ulKoPfDzOP86OVklBn_3_bottom_drill1" transform="scale(25.4,25.4)"><use xlink:href="#HpYcuJmt3rScrIUtS20-_pad-1" x="5775" y="-3400"/><use xlink:href="#HpYcuJmt3rScrIUtS20-_pad-1" x="3975" y="-3600"/><use xlink:href="#HpYcuJmt3rScrIUtS20-_pad-1" x="3975" y="-3400"/></g><g id="ulKoPfDzOP86OVklBn_3_bottom_drill2" transform="scale(25.4,25.4)"><use xlink:href="#q8-zt-mq-hOISb02xBlO_pad-1" x="6425" y="-2718.3"/><use xlink:href="#q8-zt-mq-hOISb02xBlO_pad-1" x="6425" y="-3525"/><use xlink:href="#q8-zt-mq-hOISb02xBlO_pad-2" x="3775" y="-2975"/></g><clipPath id="ulKoPfDzOP86OVklBn_3_bottom_outline"><path d="M 92285 -48200 175285 -48200 A 1000 1000 0 0 0 176285 -49200 L 176285 -102200 A 1000 1000 0 0 0 175285 -103200 L 92285 -103200 A 1000 1000 0 0 0 91285 -102200 L 91285 -49200 A 1000 1000 0 0 0 92285 -48200" fill="none" stroke-width="200"/></clipPath><mask id="ulKoPfDzOP86OVklBn_3_bottom_mech-mask"><g fill="#000" stroke="#000"><rect x="91285" y="-103200" width="85000" height="55000" fill="#fff"/><use xlink:href="#ulKoPfDzOP86OVklBn_3_bottom_drill1"/><use xlink:href="#ulKoPfDzOP86OVklBn_3_bottom_drill2"/></g></mask><mask id="ulKoPfDzOP86OVklBn_3_bottom_cf-mask"><g fill="#fff" stroke="#fff"><use xlink:href="#ulKoPfDzOP86OVklBn_3_bottom_soldermask"/></g></mask><mask id="ulKoPfDzOP86OVklBn_3_bottom_sm-mask"><g fill="#000" stroke="#000"><rect x="91285" y="-103200" width="85000" height="55000" fill="#fff"/><use xlink:href="#ulKoPfDzOP86OVklBn_3_bottom_soldermask"/></g></mask></defs><g transform="translate(0,-151400) scale(1,-1)"><g mask="url(#ulKoPfDzOP86OVklBn_3_bottom_mech-mask)" clip-path="url(#ulKoPfDzOP86OVklBn_3_bottom_outline)" transform="translate(267570,0) scale(-1,1)"><rect x="91285" y="-103200" width="85000" height="55000" fill="currentColor" class="ulKoPfDzOP86OVklBn_3_fr4"/><use xlink:href="#ulKoPfDzOP86OVklBn_3_bottom_copper" fill="currentColor" stroke="currentColor" class="ulKoPfDzOP86OVklBn_3_cu"/><use xlink:href="#ulKoPfDzOP86OVklBn_3_bottom_copper" fill="currentColor" stroke="currentColor" class="ulKoPfDzOP86OVklBn_3_cf" mask="url(#ulKoPfDzOP86OVklBn_3_bottom_cf-mask)"/><g mask="url(#ulKoPfDzOP86OVklBn_3_bottom_sm-mask)"><rect x="91285" y="-103200" width="85000" height="55000" fill="currentColor" class="ulKoPfDzOP86OVklBn_3_sm"/></g></g></g></svg>