G04 #@! TF.FileFunction,Copper,L1,Top,Signal*
%FSLAX46Y46*%
G04 Gerber Fmt 4.6, Leading zero omitted, Abs format (unit mm)*
G04 Created by KiCad (PCBNEW 4.0.7) date Tue Feb 13 15:09:29 2018*
%MOMM*%
%LPD*%
G01*
G04 APERTURE LIST*
%ADD10C,0.100000*%
%ADD11R,1.000000X1.000000*%
%ADD12R,1.200000X1.200000*%
%ADD13R,1.500000X1.300000*%
%ADD14C,3.000000*%
%ADD15R,3.000000X3.000000*%
%ADD16C,7.000000*%
%ADD17R,2.000000X2.000000*%
%ADD18C,2.000000*%
%ADD19C,0.500000*%
%ADD20C,0.254000*%
G04 APERTURE END LIST*
D10*
D11*
X144145000Y-91440000D03*
X141605000Y-91440000D03*
X139065000Y-91440000D03*
X136525000Y-91440000D03*
X133985000Y-91440000D03*
X131445000Y-91440000D03*
X128905000Y-91440000D03*
X126365000Y-91440000D03*
X123825000Y-91440000D03*
X121285000Y-91440000D03*
X118745000Y-91440000D03*
X116205000Y-91440000D03*
X113665000Y-91440000D03*
X111125000Y-91440000D03*
X108585000Y-91440000D03*
D12*
X107485000Y-53340000D03*
X109685000Y-53340000D03*
D13*
X101680000Y-53340000D03*
X98980000Y-53340000D03*
D14*
X163195000Y-69045000D03*
D15*
X163195000Y-89535000D03*
D16*
X95885000Y-75565000D03*
D17*
X106045000Y-86360000D03*
D11*
X106045000Y-91440000D03*
D18*
X100965000Y-91440000D03*
X100965000Y-86360000D03*
X146685000Y-86360000D03*
D19*
X163195000Y-64770000D02*
X163195000Y-57150000D01*
X109685000Y-53340000D02*
X151765000Y-53340000D01*
X163195000Y-64770000D02*
X163195000Y-69045000D01*
X159385000Y-53340000D02*
X151765000Y-53340000D01*
X163195000Y-57150000D02*
X159385000Y-53340000D01*
X157480000Y-84353400D02*
X157480000Y-85725000D01*
X163195000Y-89535000D02*
X161290000Y-89535000D01*
X157480000Y-80543400D02*
X157480000Y-84353400D01*
X157480000Y-80543400D02*
X153009600Y-80543400D01*
X157480000Y-85725000D02*
X161290000Y-89535000D01*
X151511000Y-80543400D02*
X153009600Y-80543400D01*
X102132351Y-80543400D02*
X106680000Y-58420000D01*
X151511000Y-80543400D02*
X102132351Y-80543400D01*
X103505000Y-58420000D02*
X97790000Y-58420000D01*
X97790000Y-58420000D02*
X97790000Y-53340000D01*
X98980000Y-53340000D02*
X97790000Y-53340000D01*
X106680000Y-58420000D02*
X103505000Y-58420000D01*
X153009600Y-80543400D02*
X153035000Y-80568800D01*
X107485000Y-53340000D02*
X101680000Y-53340000D01*
X106045000Y-86360000D02*
X106045000Y-91440000D01*
X106045000Y-91440000D02*
X108585000Y-91440000D01*
X108585000Y-91440000D02*
X111125000Y-91440000D01*
X111125000Y-91440000D02*
X113665000Y-91440000D01*
X113665000Y-91440000D02*
X116205000Y-91440000D01*
X116205000Y-91440000D02*
X118745000Y-91440000D01*
X118745000Y-91440000D02*
X121285000Y-91440000D01*
X121285000Y-91440000D02*
X123825000Y-91440000D01*
X123825000Y-91440000D02*
X126365000Y-91440000D01*
X126365000Y-91440000D02*
X128905000Y-91440000D01*
X128905000Y-91440000D02*
X131445000Y-91440000D01*
X131445000Y-91440000D02*
X133985000Y-91440000D01*
X133985000Y-91440000D02*
X136525000Y-91440000D01*
X136525000Y-91440000D02*
X139065000Y-91440000D01*
X139065000Y-91440000D02*
X141605000Y-91440000D01*
X141605000Y-91440000D02*
X144145000Y-91440000D01*
D20*
G36*
X173973000Y-100203000D02*
X94107000Y-100203000D01*
X94107000Y-91175461D01*
X99319092Y-91175461D01*
X99329973Y-91469517D01*
X99329716Y-91763795D01*
X99341959Y-91793424D01*
X99343144Y-91825460D01*
X99545613Y-92314264D01*
X99559249Y-92319306D01*
X99578106Y-92364943D01*
X100037637Y-92825278D01*
X100085468Y-92845139D01*
X100090736Y-92859387D01*
X100366581Y-92961867D01*
X100638352Y-93074716D01*
X100670411Y-93074744D01*
X100700461Y-93085908D01*
X100994517Y-93075027D01*
X101288795Y-93075284D01*
X101318424Y-93063041D01*
X101350460Y-93061856D01*
X101839264Y-92859387D01*
X101844306Y-92845751D01*
X101889943Y-92826894D01*
X102350278Y-92367363D01*
X102370139Y-92319532D01*
X102384387Y-92314264D01*
X102486867Y-92038419D01*
X102599716Y-91766648D01*
X102599744Y-91734589D01*
X102610908Y-91704539D01*
X102600027Y-91410483D01*
X102600284Y-91116205D01*
X102588041Y-91086576D01*
X102586856Y-91054540D01*
X102384387Y-90565736D01*
X102370751Y-90560694D01*
X102351894Y-90515057D01*
X101892363Y-90054722D01*
X101844532Y-90034861D01*
X101839264Y-90020613D01*
X101563419Y-89918133D01*
X101291648Y-89805284D01*
X101259589Y-89805256D01*
X101229539Y-89794092D01*
X100935483Y-89804973D01*
X100641205Y-89804716D01*
X100611576Y-89816959D01*
X100579540Y-89818144D01*
X100090736Y-90020613D01*
X100085694Y-90034249D01*
X100040057Y-90053106D01*
X99579722Y-90512637D01*
X99559861Y-90560468D01*
X99545613Y-90565736D01*
X99443133Y-90841581D01*
X99330284Y-91113352D01*
X99330256Y-91145411D01*
X99319092Y-91175461D01*
X94107000Y-91175461D01*
X94107000Y-86095461D01*
X99319092Y-86095461D01*
X99329973Y-86389517D01*
X99329716Y-86683795D01*
X99341959Y-86713424D01*
X99343144Y-86745460D01*
X99545613Y-87234264D01*
X99559249Y-87239306D01*
X99578106Y-87284943D01*
X100037637Y-87745278D01*
X100085468Y-87765139D01*
X100090736Y-87779387D01*
X100366581Y-87881867D01*
X100638352Y-87994716D01*
X100670411Y-87994744D01*
X100700461Y-88005908D01*
X100994517Y-87995027D01*
X101288795Y-87995284D01*
X101318424Y-87983041D01*
X101350460Y-87981856D01*
X101839264Y-87779387D01*
X101844306Y-87765751D01*
X101889943Y-87746894D01*
X102350278Y-87287363D01*
X102370139Y-87239532D01*
X102384387Y-87234264D01*
X102486867Y-86958419D01*
X102599716Y-86686648D01*
X102599744Y-86654589D01*
X102610908Y-86624539D01*
X102600027Y-86330483D01*
X102600284Y-86036205D01*
X102588041Y-86006576D01*
X102586856Y-85974540D01*
X102384387Y-85485736D01*
X102370751Y-85480694D01*
X102351894Y-85435057D01*
X102276969Y-85360000D01*
X104397560Y-85360000D01*
X104397560Y-87360000D01*
X104441838Y-87595317D01*
X104580910Y-87811441D01*
X104793110Y-87956431D01*
X105045000Y-88007440D01*
X105160000Y-88007440D01*
X105160000Y-90433156D01*
X105093559Y-90475910D01*
X104948569Y-90688110D01*
X104897560Y-90940000D01*
X104897560Y-91940000D01*
X104941838Y-92175317D01*
X105080910Y-92391441D01*
X105293110Y-92536431D01*
X105545000Y-92587440D01*
X106545000Y-92587440D01*
X106780317Y-92543162D01*
X106996441Y-92404090D01*
X107050481Y-92325000D01*
X107578156Y-92325000D01*
X107620910Y-92391441D01*
X107833110Y-92536431D01*
X108085000Y-92587440D01*
X109085000Y-92587440D01*
X109320317Y-92543162D01*
X109536441Y-92404090D01*
X109590481Y-92325000D01*
X110118156Y-92325000D01*
X110160910Y-92391441D01*
X110373110Y-92536431D01*
X110625000Y-92587440D01*
X111625000Y-92587440D01*
X111860317Y-92543162D01*
X112076441Y-92404090D01*
X112130481Y-92325000D01*
X112658156Y-92325000D01*
X112700910Y-92391441D01*
X112913110Y-92536431D01*
X113165000Y-92587440D01*
X114165000Y-92587440D01*
X114400317Y-92543162D01*
X114616441Y-92404090D01*
X114670481Y-92325000D01*
X115198156Y-92325000D01*
X115240910Y-92391441D01*
X115453110Y-92536431D01*
X115705000Y-92587440D01*
X116705000Y-92587440D01*
X116940317Y-92543162D01*
X117156441Y-92404090D01*
X117210481Y-92325000D01*
X117738156Y-92325000D01*
X117780910Y-92391441D01*
X117993110Y-92536431D01*
X118245000Y-92587440D01*
X119245000Y-92587440D01*
X119480317Y-92543162D01*
X119696441Y-92404090D01*
X119750481Y-92325000D01*
X120278156Y-92325000D01*
X120320910Y-92391441D01*
X120533110Y-92536431D01*
X120785000Y-92587440D01*
X121785000Y-92587440D01*
X122020317Y-92543162D01*
X122236441Y-92404090D01*
X122290481Y-92325000D01*
X122818156Y-92325000D01*
X122860910Y-92391441D01*
X123073110Y-92536431D01*
X123325000Y-92587440D01*
X124325000Y-92587440D01*
X124560317Y-92543162D01*
X124776441Y-92404090D01*
X124830481Y-92325000D01*
X125358156Y-92325000D01*
X125400910Y-92391441D01*
X125613110Y-92536431D01*
X125865000Y-92587440D01*
X126865000Y-92587440D01*
X127100317Y-92543162D01*
X127316441Y-92404090D01*
X127370481Y-92325000D01*
X127898156Y-92325000D01*
X127940910Y-92391441D01*
X128153110Y-92536431D01*
X128405000Y-92587440D01*
X129405000Y-92587440D01*
X129640317Y-92543162D01*
X129856441Y-92404090D01*
X129910481Y-92325000D01*
X130438156Y-92325000D01*
X130480910Y-92391441D01*
X130693110Y-92536431D01*
X130945000Y-92587440D01*
X131945000Y-92587440D01*
X132180317Y-92543162D01*
X132396441Y-92404090D01*
X132450481Y-92325000D01*
X132978156Y-92325000D01*
X133020910Y-92391441D01*
X133233110Y-92536431D01*
X133485000Y-92587440D01*
X134485000Y-92587440D01*
X134720317Y-92543162D01*
X134936441Y-92404090D01*
X134990481Y-92325000D01*
X135518156Y-92325000D01*
X135560910Y-92391441D01*
X135773110Y-92536431D01*
X136025000Y-92587440D01*
X137025000Y-92587440D01*
X137260317Y-92543162D01*
X137476441Y-92404090D01*
X137530481Y-92325000D01*
X138058156Y-92325000D01*
X138100910Y-92391441D01*
X138313110Y-92536431D01*
X138565000Y-92587440D01*
X139565000Y-92587440D01*
X139800317Y-92543162D01*
X140016441Y-92404090D01*
X140070481Y-92325000D01*
X140598156Y-92325000D01*
X140640910Y-92391441D01*
X140853110Y-92536431D01*
X141105000Y-92587440D01*
X142105000Y-92587440D01*
X142340317Y-92543162D01*
X142556441Y-92404090D01*
X142610481Y-92325000D01*
X143138156Y-92325000D01*
X143180910Y-92391441D01*
X143393110Y-92536431D01*
X143645000Y-92587440D01*
X144645000Y-92587440D01*
X144880317Y-92543162D01*
X145096441Y-92404090D01*
X145241431Y-92191890D01*
X145292440Y-91940000D01*
X145292440Y-90940000D01*
X145248162Y-90704683D01*
X145109090Y-90488559D01*
X144896890Y-90343569D01*
X144645000Y-90292560D01*
X143645000Y-90292560D01*
X143409683Y-90336838D01*
X143193559Y-90475910D01*
X143139519Y-90555000D01*
X142611844Y-90555000D01*
X142569090Y-90488559D01*
X142356890Y-90343569D01*
X142105000Y-90292560D01*
X141105000Y-90292560D01*
X140869683Y-90336838D01*
X140653559Y-90475910D01*
X140599519Y-90555000D01*
X140071844Y-90555000D01*
X140029090Y-90488559D01*
X139816890Y-90343569D01*
X139565000Y-90292560D01*
X138565000Y-90292560D01*
X138329683Y-90336838D01*
X138113559Y-90475910D01*
X138059519Y-90555000D01*
X137531844Y-90555000D01*
X137489090Y-90488559D01*
X137276890Y-90343569D01*
X137025000Y-90292560D01*
X136025000Y-90292560D01*
X135789683Y-90336838D01*
X135573559Y-90475910D01*
X135519519Y-90555000D01*
X134991844Y-90555000D01*
X134949090Y-90488559D01*
X134736890Y-90343569D01*
X134485000Y-90292560D01*
X133485000Y-90292560D01*
X133249683Y-90336838D01*
X133033559Y-90475910D01*
X132979519Y-90555000D01*
X132451844Y-90555000D01*
X132409090Y-90488559D01*
X132196890Y-90343569D01*
X131945000Y-90292560D01*
X130945000Y-90292560D01*
X130709683Y-90336838D01*
X130493559Y-90475910D01*
X130439519Y-90555000D01*
X129911844Y-90555000D01*
X129869090Y-90488559D01*
X129656890Y-90343569D01*
X129405000Y-90292560D01*
X128405000Y-90292560D01*
X128169683Y-90336838D01*
X127953559Y-90475910D01*
X127899519Y-90555000D01*
X127371844Y-90555000D01*
X127329090Y-90488559D01*
X127116890Y-90343569D01*
X126865000Y-90292560D01*
X125865000Y-90292560D01*
X125629683Y-90336838D01*
X125413559Y-90475910D01*
X125359519Y-90555000D01*
X124831844Y-90555000D01*
X124789090Y-90488559D01*
X124576890Y-90343569D01*
X124325000Y-90292560D01*
X123325000Y-90292560D01*
X123089683Y-90336838D01*
X122873559Y-90475910D01*
X122819519Y-90555000D01*
X122291844Y-90555000D01*
X122249090Y-90488559D01*
X122036890Y-90343569D01*
X121785000Y-90292560D01*
X120785000Y-90292560D01*
X120549683Y-90336838D01*
X120333559Y-90475910D01*
X120279519Y-90555000D01*
X119751844Y-90555000D01*
X119709090Y-90488559D01*
X119496890Y-90343569D01*
X119245000Y-90292560D01*
X118245000Y-90292560D01*
X118009683Y-90336838D01*
X117793559Y-90475910D01*
X117739519Y-90555000D01*
X117211844Y-90555000D01*
X117169090Y-90488559D01*
X116956890Y-90343569D01*
X116705000Y-90292560D01*
X115705000Y-90292560D01*
X115469683Y-90336838D01*
X115253559Y-90475910D01*
X115199519Y-90555000D01*
X114671844Y-90555000D01*
X114629090Y-90488559D01*
X114416890Y-90343569D01*
X114165000Y-90292560D01*
X113165000Y-90292560D01*
X112929683Y-90336838D01*
X112713559Y-90475910D01*
X112659519Y-90555000D01*
X112131844Y-90555000D01*
X112089090Y-90488559D01*
X111876890Y-90343569D01*
X111625000Y-90292560D01*
X110625000Y-90292560D01*
X110389683Y-90336838D01*
X110173559Y-90475910D01*
X110119519Y-90555000D01*
X109591844Y-90555000D01*
X109549090Y-90488559D01*
X109336890Y-90343569D01*
X109085000Y-90292560D01*
X108085000Y-90292560D01*
X107849683Y-90336838D01*
X107633559Y-90475910D01*
X107579519Y-90555000D01*
X107051844Y-90555000D01*
X107009090Y-90488559D01*
X106930000Y-90434519D01*
X106930000Y-88007440D01*
X107045000Y-88007440D01*
X107280317Y-87963162D01*
X107496441Y-87824090D01*
X107641431Y-87611890D01*
X107692440Y-87360000D01*
X107692440Y-86095461D01*
X145039092Y-86095461D01*
X145049973Y-86389517D01*
X145049716Y-86683795D01*
X145061959Y-86713424D01*
X145063144Y-86745460D01*
X145265613Y-87234264D01*
X145279249Y-87239306D01*
X145298106Y-87284943D01*
X145757637Y-87745278D01*
X145805468Y-87765139D01*
X145810736Y-87779387D01*
X146086581Y-87881867D01*
X146358352Y-87994716D01*
X146390411Y-87994744D01*
X146420461Y-88005908D01*
X146714517Y-87995027D01*
X147008795Y-87995284D01*
X147038424Y-87983041D01*
X147070460Y-87981856D01*
X147559264Y-87779387D01*
X147564306Y-87765751D01*
X147609943Y-87746894D01*
X148070278Y-87287363D01*
X148090139Y-87239532D01*
X148104387Y-87234264D01*
X148206867Y-86958419D01*
X148319716Y-86686648D01*
X148319744Y-86654589D01*
X148330908Y-86624539D01*
X148320027Y-86330483D01*
X148320284Y-86036205D01*
X148308041Y-86006576D01*
X148306856Y-85974540D01*
X148104387Y-85485736D01*
X148090751Y-85480694D01*
X148071894Y-85435057D01*
X147612363Y-84974722D01*
X147564532Y-84954861D01*
X147559264Y-84940613D01*
X147283419Y-84838133D01*
X147011648Y-84725284D01*
X146979589Y-84725256D01*
X146949539Y-84714092D01*
X146655483Y-84724973D01*
X146361205Y-84724716D01*
X146331576Y-84736959D01*
X146299540Y-84738144D01*
X145810736Y-84940613D01*
X145805694Y-84954249D01*
X145760057Y-84973106D01*
X145299722Y-85432637D01*
X145279861Y-85480468D01*
X145265613Y-85485736D01*
X145163133Y-85761581D01*
X145050284Y-86033352D01*
X145050256Y-86065411D01*
X145039092Y-86095461D01*
X107692440Y-86095461D01*
X107692440Y-85360000D01*
X107648162Y-85124683D01*
X107509090Y-84908559D01*
X107296890Y-84763569D01*
X107045000Y-84712560D01*
X105045000Y-84712560D01*
X104809683Y-84756838D01*
X104593559Y-84895910D01*
X104448569Y-85108110D01*
X104397560Y-85360000D01*
X102276969Y-85360000D01*
X101892363Y-84974722D01*
X101844532Y-84954861D01*
X101839264Y-84940613D01*
X101563419Y-84838133D01*
X101291648Y-84725284D01*
X101259589Y-84725256D01*
X101229539Y-84714092D01*
X100935483Y-84724973D01*
X100641205Y-84724716D01*
X100611576Y-84736959D01*
X100579540Y-84738144D01*
X100090736Y-84940613D01*
X100085694Y-84954249D01*
X100040057Y-84973106D01*
X99579722Y-85432637D01*
X99559861Y-85480468D01*
X99545613Y-85485736D01*
X99443133Y-85761581D01*
X99330284Y-86033352D01*
X99330256Y-86065411D01*
X99319092Y-86095461D01*
X94107000Y-86095461D01*
X94107000Y-79304021D01*
X94283491Y-79377307D01*
X95024730Y-79692307D01*
X95042487Y-79692469D01*
X95058889Y-79699280D01*
X95864327Y-79699983D01*
X96669666Y-79707346D01*
X96686134Y-79700700D01*
X96703894Y-79700716D01*
X97448262Y-79393149D01*
X98195145Y-79091750D01*
X98223407Y-79072865D01*
X98224229Y-79072526D01*
X98224864Y-79071892D01*
X98259238Y-79048924D01*
X98296201Y-79000679D01*
X99328376Y-77970304D01*
X99368924Y-77939238D01*
X99375870Y-77922893D01*
X99388438Y-77910347D01*
X99697307Y-77166509D01*
X100012307Y-76425270D01*
X100012469Y-76407513D01*
X100019280Y-76391111D01*
X100019983Y-75585673D01*
X100027346Y-74780334D01*
X100020700Y-74763866D01*
X100020716Y-74746106D01*
X99713149Y-74001738D01*
X99411750Y-73254855D01*
X99392865Y-73226593D01*
X99392526Y-73225771D01*
X99391892Y-73225136D01*
X99368924Y-73190762D01*
X99320679Y-73153799D01*
X98290304Y-72121624D01*
X98259238Y-72081076D01*
X98242893Y-72074130D01*
X98230347Y-72061562D01*
X97486509Y-71752693D01*
X96745270Y-71437693D01*
X96727513Y-71437531D01*
X96711111Y-71430720D01*
X95905673Y-71430017D01*
X95100334Y-71422654D01*
X95083866Y-71429300D01*
X95066106Y-71429284D01*
X94321738Y-71736851D01*
X94107000Y-71823507D01*
X94107000Y-53340000D01*
X96905000Y-53340000D01*
X96905000Y-58420000D01*
X96972367Y-58758675D01*
X97164210Y-59045790D01*
X97451325Y-59237633D01*
X97790000Y-59305000D01*
X105594577Y-59305000D01*
X101265476Y-80365207D01*
X101264902Y-80455167D01*
X101247351Y-80543400D01*
X101263810Y-80626147D01*
X101263272Y-80710510D01*
X101297167Y-80793842D01*
X101314718Y-80882075D01*
X101361588Y-80952222D01*
X101393376Y-81030372D01*
X101456581Y-81094389D01*
X101506561Y-81169190D01*
X101576711Y-81216062D01*
X101635983Y-81276096D01*
X101718875Y-81311053D01*
X101793676Y-81361033D01*
X101876421Y-81377492D01*
X101954158Y-81410275D01*
X102044118Y-81410849D01*
X102132351Y-81428400D01*
X152907303Y-81428400D01*
X153035000Y-81453801D01*
X153162697Y-81428400D01*
X156595000Y-81428400D01*
X156595000Y-85724995D01*
X156594999Y-85725000D01*
X156644637Y-85974540D01*
X156662367Y-86063675D01*
X156854210Y-86350790D01*
X160664208Y-90160787D01*
X160664210Y-90160790D01*
X160951325Y-90352633D01*
X161007516Y-90363810D01*
X161047560Y-90371776D01*
X161047560Y-91035000D01*
X161091838Y-91270317D01*
X161230910Y-91486441D01*
X161443110Y-91631431D01*
X161695000Y-91682440D01*
X164695000Y-91682440D01*
X164930317Y-91638162D01*
X165146441Y-91499090D01*
X165291431Y-91286890D01*
X165342440Y-91035000D01*
X165342440Y-88035000D01*
X165298162Y-87799683D01*
X165159090Y-87583559D01*
X164946890Y-87438569D01*
X164695000Y-87387560D01*
X161695000Y-87387560D01*
X161459683Y-87431838D01*
X161243559Y-87570910D01*
X161098569Y-87783110D01*
X161047560Y-88035000D01*
X161047560Y-88040981D01*
X158365000Y-85358420D01*
X158365000Y-80543400D01*
X158297633Y-80204725D01*
X158105790Y-79917610D01*
X157818675Y-79725767D01*
X157480000Y-79658400D01*
X153009605Y-79658400D01*
X153009600Y-79658399D01*
X153009595Y-79658400D01*
X103217774Y-79658400D01*
X107546875Y-58598193D01*
X107547449Y-58508233D01*
X107565000Y-58420000D01*
X107548541Y-58337253D01*
X107549079Y-58252890D01*
X107515184Y-58169557D01*
X107497633Y-58081325D01*
X107450764Y-58011181D01*
X107418976Y-57933028D01*
X107355769Y-57869009D01*
X107305790Y-57794210D01*
X107235641Y-57747338D01*
X107176368Y-57687304D01*
X107093476Y-57652347D01*
X107018675Y-57602367D01*
X106935930Y-57585908D01*
X106858193Y-57553125D01*
X106768232Y-57552551D01*
X106680000Y-57535000D01*
X98675000Y-57535000D01*
X98675000Y-54637440D01*
X99730000Y-54637440D01*
X99965317Y-54593162D01*
X100181441Y-54454090D01*
X100326431Y-54241890D01*
X100329081Y-54228803D01*
X100465910Y-54441441D01*
X100678110Y-54586431D01*
X100930000Y-54637440D01*
X102430000Y-54637440D01*
X102665317Y-54593162D01*
X102881441Y-54454090D01*
X103026431Y-54241890D01*
X103029851Y-54225000D01*
X106313808Y-54225000D01*
X106420910Y-54391441D01*
X106633110Y-54536431D01*
X106885000Y-54587440D01*
X108085000Y-54587440D01*
X108320317Y-54543162D01*
X108536441Y-54404090D01*
X108584134Y-54334289D01*
X108620910Y-54391441D01*
X108833110Y-54536431D01*
X109085000Y-54587440D01*
X110285000Y-54587440D01*
X110520317Y-54543162D01*
X110736441Y-54404090D01*
X110858808Y-54225000D01*
X159018420Y-54225000D01*
X162310000Y-57516579D01*
X162310000Y-67100601D01*
X161987200Y-67233980D01*
X161386091Y-67834041D01*
X161060372Y-68618459D01*
X161059630Y-69467815D01*
X161383980Y-70252800D01*
X161984041Y-70853909D01*
X162768459Y-71179628D01*
X163617815Y-71180370D01*
X164402800Y-70856020D01*
X165003909Y-70255959D01*
X165329628Y-69471541D01*
X165330370Y-68622185D01*
X165006020Y-67837200D01*
X164405959Y-67236091D01*
X164080000Y-67100741D01*
X164080000Y-57150005D01*
X164080001Y-57150000D01*
X164012633Y-56811326D01*
X164012633Y-56811325D01*
X163820790Y-56524210D01*
X163820787Y-56524208D01*
X160010790Y-52714210D01*
X159974557Y-52690000D01*
X159723675Y-52522367D01*
X159667484Y-52511190D01*
X159385000Y-52454999D01*
X159384995Y-52455000D01*
X110856192Y-52455000D01*
X110749090Y-52288559D01*
X110536890Y-52143569D01*
X110285000Y-52092560D01*
X109085000Y-52092560D01*
X108849683Y-52136838D01*
X108633559Y-52275910D01*
X108585866Y-52345711D01*
X108549090Y-52288559D01*
X108336890Y-52143569D01*
X108085000Y-52092560D01*
X106885000Y-52092560D01*
X106649683Y-52136838D01*
X106433559Y-52275910D01*
X106311192Y-52455000D01*
X103033222Y-52455000D01*
X103033162Y-52454683D01*
X102894090Y-52238559D01*
X102681890Y-52093569D01*
X102430000Y-52042560D01*
X100930000Y-52042560D01*
X100694683Y-52086838D01*
X100478559Y-52225910D01*
X100333569Y-52438110D01*
X100330919Y-52451197D01*
X100194090Y-52238559D01*
X99981890Y-52093569D01*
X99730000Y-52042560D01*
X98230000Y-52042560D01*
X97994683Y-52086838D01*
X97778559Y-52225910D01*
X97633569Y-52438110D01*
X97623439Y-52488131D01*
X97451325Y-52522367D01*
X97164210Y-52714210D01*
X96972367Y-53001325D01*
X96905000Y-53340000D01*
X94107000Y-53340000D01*
X94107000Y-50927000D01*
X173973000Y-50927000D01*
X173973000Y-100203000D01*
X173973000Y-100203000D01*
G37*
X173973000Y-100203000D02*
X94107000Y-100203000D01*
X94107000Y-91175461D01*
X99319092Y-91175461D01*
X99329973Y-91469517D01*
X99329716Y-91763795D01*
X99341959Y-91793424D01*
X99343144Y-91825460D01*
X99545613Y-92314264D01*
X99559249Y-92319306D01*
X99578106Y-92364943D01*
X100037637Y-92825278D01*
X100085468Y-92845139D01*
X100090736Y-92859387D01*
X100366581Y-92961867D01*
X100638352Y-93074716D01*
X100670411Y-93074744D01*
X100700461Y-93085908D01*
X100994517Y-93075027D01*
X101288795Y-93075284D01*
X101318424Y-93063041D01*
X101350460Y-93061856D01*
X101839264Y-92859387D01*
X101844306Y-92845751D01*
X101889943Y-92826894D01*
X102350278Y-92367363D01*
X102370139Y-92319532D01*
X102384387Y-92314264D01*
X102486867Y-92038419D01*
X102599716Y-91766648D01*
X102599744Y-91734589D01*
X102610908Y-91704539D01*
X102600027Y-91410483D01*
X102600284Y-91116205D01*
X102588041Y-91086576D01*
X102586856Y-91054540D01*
X102384387Y-90565736D01*
X102370751Y-90560694D01*
X102351894Y-90515057D01*
X101892363Y-90054722D01*
X101844532Y-90034861D01*
X101839264Y-90020613D01*
X101563419Y-89918133D01*
X101291648Y-89805284D01*
X101259589Y-89805256D01*
X101229539Y-89794092D01*
X100935483Y-89804973D01*
X100641205Y-89804716D01*
X100611576Y-89816959D01*
X100579540Y-89818144D01*
X100090736Y-90020613D01*
X100085694Y-90034249D01*
X100040057Y-90053106D01*
X99579722Y-90512637D01*
X99559861Y-90560468D01*
X99545613Y-90565736D01*
X99443133Y-90841581D01*
X99330284Y-91113352D01*
X99330256Y-91145411D01*
X99319092Y-91175461D01*
X94107000Y-91175461D01*
X94107000Y-86095461D01*
X99319092Y-86095461D01*
X99329973Y-86389517D01*
X99329716Y-86683795D01*
X99341959Y-86713424D01*
X99343144Y-86745460D01*
X99545613Y-87234264D01*
X99559249Y-87239306D01*
X99578106Y-87284943D01*
X100037637Y-87745278D01*
X100085468Y-87765139D01*
X100090736Y-87779387D01*
X100366581Y-87881867D01*
X100638352Y-87994716D01*
X100670411Y-87994744D01*
X100700461Y-88005908D01*
X100994517Y-87995027D01*
X101288795Y-87995284D01*
X101318424Y-87983041D01*
X101350460Y-87981856D01*
X101839264Y-87779387D01*
X101844306Y-87765751D01*
X101889943Y-87746894D01*
X102350278Y-87287363D01*
X102370139Y-87239532D01*
X102384387Y-87234264D01*
X102486867Y-86958419D01*
X102599716Y-86686648D01*
X102599744Y-86654589D01*
X102610908Y-86624539D01*
X102600027Y-86330483D01*
X102600284Y-86036205D01*
X102588041Y-86006576D01*
X102586856Y-85974540D01*
X102384387Y-85485736D01*
X102370751Y-85480694D01*
X102351894Y-85435057D01*
X102276969Y-85360000D01*
X104397560Y-85360000D01*
X104397560Y-87360000D01*
X104441838Y-87595317D01*
X104580910Y-87811441D01*
X104793110Y-87956431D01*
X105045000Y-88007440D01*
X105160000Y-88007440D01*
X105160000Y-90433156D01*
X105093559Y-90475910D01*
X104948569Y-90688110D01*
X104897560Y-90940000D01*
X104897560Y-91940000D01*
X104941838Y-92175317D01*
X105080910Y-92391441D01*
X105293110Y-92536431D01*
X105545000Y-92587440D01*
X106545000Y-92587440D01*
X106780317Y-92543162D01*
X106996441Y-92404090D01*
X107050481Y-92325000D01*
X107578156Y-92325000D01*
X107620910Y-92391441D01*
X107833110Y-92536431D01*
X108085000Y-92587440D01*
X109085000Y-92587440D01*
X109320317Y-92543162D01*
X109536441Y-92404090D01*
X109590481Y-92325000D01*
X110118156Y-92325000D01*
X110160910Y-92391441D01*
X110373110Y-92536431D01*
X110625000Y-92587440D01*
X111625000Y-92587440D01*
X111860317Y-92543162D01*
X112076441Y-92404090D01*
X112130481Y-92325000D01*
X112658156Y-92325000D01*
X112700910Y-92391441D01*
X112913110Y-92536431D01*
X113165000Y-92587440D01*
X114165000Y-92587440D01*
X114400317Y-92543162D01*
X114616441Y-92404090D01*
X114670481Y-92325000D01*
X115198156Y-92325000D01*
X115240910Y-92391441D01*
X115453110Y-92536431D01*
X115705000Y-92587440D01*
X116705000Y-92587440D01*
X116940317Y-92543162D01*
X117156441Y-92404090D01*
X117210481Y-92325000D01*
X117738156Y-92325000D01*
X117780910Y-92391441D01*
X117993110Y-92536431D01*
X118245000Y-92587440D01*
X119245000Y-92587440D01*
X119480317Y-92543162D01*
X119696441Y-92404090D01*
X119750481Y-92325000D01*
X120278156Y-92325000D01*
X120320910Y-92391441D01*
X120533110Y-92536431D01*
X120785000Y-92587440D01*
X121785000Y-92587440D01*
X122020317Y-92543162D01*
X122236441Y-92404090D01*
X122290481Y-92325000D01*
X122818156Y-92325000D01*
X122860910Y-92391441D01*
X123073110Y-92536431D01*
X123325000Y-92587440D01*
X124325000Y-92587440D01*
X124560317Y-92543162D01*
X124776441Y-92404090D01*
X124830481Y-92325000D01*
X125358156Y-92325000D01*
X125400910Y-92391441D01*
X125613110Y-92536431D01*
X125865000Y-92587440D01*
X126865000Y-92587440D01*
X127100317Y-92543162D01*
X127316441Y-92404090D01*
X127370481Y-92325000D01*
X127898156Y-92325000D01*
X127940910Y-92391441D01*
X128153110Y-92536431D01*
X128405000Y-92587440D01*
X129405000Y-92587440D01*
X129640317Y-92543162D01*
X129856441Y-92404090D01*
X129910481Y-92325000D01*
X130438156Y-92325000D01*
X130480910Y-92391441D01*
X130693110Y-92536431D01*
X130945000Y-92587440D01*
X131945000Y-92587440D01*
X132180317Y-92543162D01*
X132396441Y-92404090D01*
X132450481Y-92325000D01*
X132978156Y-92325000D01*
X133020910Y-92391441D01*
X133233110Y-92536431D01*
X133485000Y-92587440D01*
X134485000Y-92587440D01*
X134720317Y-92543162D01*
X134936441Y-92404090D01*
X134990481Y-92325000D01*
X135518156Y-92325000D01*
X135560910Y-92391441D01*
X135773110Y-92536431D01*
X136025000Y-92587440D01*
X137025000Y-92587440D01*
X137260317Y-92543162D01*
X137476441Y-92404090D01*
X137530481Y-92325000D01*
X138058156Y-92325000D01*
X138100910Y-92391441D01*
X138313110Y-92536431D01*
X138565000Y-92587440D01*
X139565000Y-92587440D01*
X139800317Y-92543162D01*
X140016441Y-92404090D01*
X140070481Y-92325000D01*
X140598156Y-92325000D01*
X140640910Y-92391441D01*
X140853110Y-92536431D01*
X141105000Y-92587440D01*
X142105000Y-92587440D01*
X142340317Y-92543162D01*
X142556441Y-92404090D01*
X142610481Y-92325000D01*
X143138156Y-92325000D01*
X143180910Y-92391441D01*
X143393110Y-92536431D01*
X143645000Y-92587440D01*
X144645000Y-92587440D01*
X144880317Y-92543162D01*
X145096441Y-92404090D01*
X145241431Y-92191890D01*
X145292440Y-91940000D01*
X145292440Y-90940000D01*
X145248162Y-90704683D01*
X145109090Y-90488559D01*
X144896890Y-90343569D01*
X144645000Y-90292560D01*
X143645000Y-90292560D01*
X143409683Y-90336838D01*
X143193559Y-90475910D01*
X143139519Y-90555000D01*
X142611844Y-90555000D01*
X142569090Y-90488559D01*
X142356890Y-90343569D01*
X142105000Y-90292560D01*
X141105000Y-90292560D01*
X140869683Y-90336838D01*
X140653559Y-90475910D01*
X140599519Y-90555000D01*
X140071844Y-90555000D01*
X140029090Y-90488559D01*
X139816890Y-90343569D01*
X139565000Y-90292560D01*
X138565000Y-90292560D01*
X138329683Y-90336838D01*
X138113559Y-90475910D01*
X138059519Y-90555000D01*
X137531844Y-90555000D01*
X137489090Y-90488559D01*
X137276890Y-90343569D01*
X137025000Y-90292560D01*
X136025000Y-90292560D01*
X135789683Y-90336838D01*
X135573559Y-90475910D01*
X135519519Y-90555000D01*
X134991844Y-90555000D01*
X134949090Y-90488559D01*
X134736890Y-90343569D01*
X134485000Y-90292560D01*
X133485000Y-90292560D01*
X133249683Y-90336838D01*
X133033559Y-90475910D01*
X132979519Y-90555000D01*
X132451844Y-90555000D01*
X132409090Y-90488559D01*
X132196890Y-90343569D01*
X131945000Y-90292560D01*
X130945000Y-90292560D01*
X130709683Y-90336838D01*
X130493559Y-90475910D01*
X130439519Y-90555000D01*
X129911844Y-90555000D01*
X129869090Y-90488559D01*
X129656890Y-90343569D01*
X129405000Y-90292560D01*
X128405000Y-90292560D01*
X128169683Y-90336838D01*
X127953559Y-90475910D01*
X127899519Y-90555000D01*
X127371844Y-90555000D01*
X127329090Y-90488559D01*
X127116890Y-90343569D01*
X126865000Y-90292560D01*
X125865000Y-90292560D01*
X125629683Y-90336838D01*
X125413559Y-90475910D01*
X125359519Y-90555000D01*
X124831844Y-90555000D01*
X124789090Y-90488559D01*
X124576890Y-90343569D01*
X124325000Y-90292560D01*
X123325000Y-90292560D01*
X123089683Y-90336838D01*
X122873559Y-90475910D01*
X122819519Y-90555000D01*
X122291844Y-90555000D01*
X122249090Y-90488559D01*
X122036890Y-90343569D01*
X121785000Y-90292560D01*
X120785000Y-90292560D01*
X120549683Y-90336838D01*
X120333559Y-90475910D01*
X120279519Y-90555000D01*
X119751844Y-90555000D01*
X119709090Y-90488559D01*
X119496890Y-90343569D01*
X119245000Y-90292560D01*
X118245000Y-90292560D01*
X118009683Y-90336838D01*
X117793559Y-90475910D01*
X117739519Y-90555000D01*
X117211844Y-90555000D01*
X117169090Y-90488559D01*
X116956890Y-90343569D01*
X116705000Y-90292560D01*
X115705000Y-90292560D01*
X115469683Y-90336838D01*
X115253559Y-90475910D01*
X115199519Y-90555000D01*
X114671844Y-90555000D01*
X114629090Y-90488559D01*
X114416890Y-90343569D01*
X114165000Y-90292560D01*
X113165000Y-90292560D01*
X112929683Y-90336838D01*
X112713559Y-90475910D01*
X112659519Y-90555000D01*
X112131844Y-90555000D01*
X112089090Y-90488559D01*
X111876890Y-90343569D01*
X111625000Y-90292560D01*
X110625000Y-90292560D01*
X110389683Y-90336838D01*
X110173559Y-90475910D01*
X110119519Y-90555000D01*
X109591844Y-90555000D01*
X109549090Y-90488559D01*
X109336890Y-90343569D01*
X109085000Y-90292560D01*
X108085000Y-90292560D01*
X107849683Y-90336838D01*
X107633559Y-90475910D01*
X107579519Y-90555000D01*
X107051844Y-90555000D01*
X107009090Y-90488559D01*
X106930000Y-90434519D01*
X106930000Y-88007440D01*
X107045000Y-88007440D01*
X107280317Y-87963162D01*
X107496441Y-87824090D01*
X107641431Y-87611890D01*
X107692440Y-87360000D01*
X107692440Y-86095461D01*
X145039092Y-86095461D01*
X145049973Y-86389517D01*
X145049716Y-86683795D01*
X145061959Y-86713424D01*
X145063144Y-86745460D01*
X145265613Y-87234264D01*
X145279249Y-87239306D01*
X145298106Y-87284943D01*
X145757637Y-87745278D01*
X145805468Y-87765139D01*
X145810736Y-87779387D01*
X146086581Y-87881867D01*
X146358352Y-87994716D01*
X146390411Y-87994744D01*
X146420461Y-88005908D01*
X146714517Y-87995027D01*
X147008795Y-87995284D01*
X147038424Y-87983041D01*
X147070460Y-87981856D01*
X147559264Y-87779387D01*
X147564306Y-87765751D01*
X147609943Y-87746894D01*
X148070278Y-87287363D01*
X148090139Y-87239532D01*
X148104387Y-87234264D01*
X148206867Y-86958419D01*
X148319716Y-86686648D01*
X148319744Y-86654589D01*
X148330908Y-86624539D01*
X148320027Y-86330483D01*
X148320284Y-86036205D01*
X148308041Y-86006576D01*
X148306856Y-85974540D01*
X148104387Y-85485736D01*
X148090751Y-85480694D01*
X148071894Y-85435057D01*
X147612363Y-84974722D01*
X147564532Y-84954861D01*
X147559264Y-84940613D01*
X147283419Y-84838133D01*
X147011648Y-84725284D01*
X146979589Y-84725256D01*
X146949539Y-84714092D01*
X146655483Y-84724973D01*
X146361205Y-84724716D01*
X146331576Y-84736959D01*
X146299540Y-84738144D01*
X145810736Y-84940613D01*
X145805694Y-84954249D01*
X145760057Y-84973106D01*
X145299722Y-85432637D01*
X145279861Y-85480468D01*
X145265613Y-85485736D01*
X145163133Y-85761581D01*
X145050284Y-86033352D01*
X145050256Y-86065411D01*
X145039092Y-86095461D01*
X107692440Y-86095461D01*
X107692440Y-85360000D01*
X107648162Y-85124683D01*
X107509090Y-84908559D01*
X107296890Y-84763569D01*
X107045000Y-84712560D01*
X105045000Y-84712560D01*
X104809683Y-84756838D01*
X104593559Y-84895910D01*
X104448569Y-85108110D01*
X104397560Y-85360000D01*
X102276969Y-85360000D01*
X101892363Y-84974722D01*
X101844532Y-84954861D01*
X101839264Y-84940613D01*
X101563419Y-84838133D01*
X101291648Y-84725284D01*
X101259589Y-84725256D01*
X101229539Y-84714092D01*
X100935483Y-84724973D01*
X100641205Y-84724716D01*
X100611576Y-84736959D01*
X100579540Y-84738144D01*
X100090736Y-84940613D01*
X100085694Y-84954249D01*
X100040057Y-84973106D01*
X99579722Y-85432637D01*
X99559861Y-85480468D01*
X99545613Y-85485736D01*
X99443133Y-85761581D01*
X99330284Y-86033352D01*
X99330256Y-86065411D01*
X99319092Y-86095461D01*
X94107000Y-86095461D01*
X94107000Y-79304021D01*
X94283491Y-79377307D01*
X95024730Y-79692307D01*
X95042487Y-79692469D01*
X95058889Y-79699280D01*
X95864327Y-79699983D01*
X96669666Y-79707346D01*
X96686134Y-79700700D01*
X96703894Y-79700716D01*
X97448262Y-79393149D01*
X98195145Y-79091750D01*
X98223407Y-79072865D01*
X98224229Y-79072526D01*
X98224864Y-79071892D01*
X98259238Y-79048924D01*
X98296201Y-79000679D01*
X99328376Y-77970304D01*
X99368924Y-77939238D01*
X99375870Y-77922893D01*
X99388438Y-77910347D01*
X99697307Y-77166509D01*
X100012307Y-76425270D01*
X100012469Y-76407513D01*
X100019280Y-76391111D01*
X100019983Y-75585673D01*
X100027346Y-74780334D01*
X100020700Y-74763866D01*
X100020716Y-74746106D01*
X99713149Y-74001738D01*
X99411750Y-73254855D01*
X99392865Y-73226593D01*
X99392526Y-73225771D01*
X99391892Y-73225136D01*
X99368924Y-73190762D01*
X99320679Y-73153799D01*
X98290304Y-72121624D01*
X98259238Y-72081076D01*
X98242893Y-72074130D01*
X98230347Y-72061562D01*
X97486509Y-71752693D01*
X96745270Y-71437693D01*
X96727513Y-71437531D01*
X96711111Y-71430720D01*
X95905673Y-71430017D01*
X95100334Y-71422654D01*
X95083866Y-71429300D01*
X95066106Y-71429284D01*
X94321738Y-71736851D01*
X94107000Y-71823507D01*
X94107000Y-53340000D01*
X96905000Y-53340000D01*
X96905000Y-58420000D01*
X96972367Y-58758675D01*
X97164210Y-59045790D01*
X97451325Y-59237633D01*
X97790000Y-59305000D01*
X105594577Y-59305000D01*
X101265476Y-80365207D01*
X101264902Y-80455167D01*
X101247351Y-80543400D01*
X101263810Y-80626147D01*
X101263272Y-80710510D01*
X101297167Y-80793842D01*
X101314718Y-80882075D01*
X101361588Y-80952222D01*
X101393376Y-81030372D01*
X101456581Y-81094389D01*
X101506561Y-81169190D01*
X101576711Y-81216062D01*
X101635983Y-81276096D01*
X101718875Y-81311053D01*
X101793676Y-81361033D01*
X101876421Y-81377492D01*
X101954158Y-81410275D01*
X102044118Y-81410849D01*
X102132351Y-81428400D01*
X152907303Y-81428400D01*
X153035000Y-81453801D01*
X153162697Y-81428400D01*
X156595000Y-81428400D01*
X156595000Y-85724995D01*
X156594999Y-85725000D01*
X156644637Y-85974540D01*
X156662367Y-86063675D01*
X156854210Y-86350790D01*
X160664208Y-90160787D01*
X160664210Y-90160790D01*
X160951325Y-90352633D01*
X161007516Y-90363810D01*
X161047560Y-90371776D01*
X161047560Y-91035000D01*
X161091838Y-91270317D01*
X161230910Y-91486441D01*
X161443110Y-91631431D01*
X161695000Y-91682440D01*
X164695000Y-91682440D01*
X164930317Y-91638162D01*
X165146441Y-91499090D01*
X165291431Y-91286890D01*
X165342440Y-91035000D01*
X165342440Y-88035000D01*
X165298162Y-87799683D01*
X165159090Y-87583559D01*
X164946890Y-87438569D01*
X164695000Y-87387560D01*
X161695000Y-87387560D01*
X161459683Y-87431838D01*
X161243559Y-87570910D01*
X161098569Y-87783110D01*
X161047560Y-88035000D01*
X161047560Y-88040981D01*
X158365000Y-85358420D01*
X158365000Y-80543400D01*
X158297633Y-80204725D01*
X158105790Y-79917610D01*
X157818675Y-79725767D01*
X157480000Y-79658400D01*
X153009605Y-79658400D01*
X153009600Y-79658399D01*
X153009595Y-79658400D01*
X103217774Y-79658400D01*
X107546875Y-58598193D01*
X107547449Y-58508233D01*
X107565000Y-58420000D01*
X107548541Y-58337253D01*
X107549079Y-58252890D01*
X107515184Y-58169557D01*
X107497633Y-58081325D01*
X107450764Y-58011181D01*
X107418976Y-57933028D01*
X107355769Y-57869009D01*
X107305790Y-57794210D01*
X107235641Y-57747338D01*
X107176368Y-57687304D01*
X107093476Y-57652347D01*
X107018675Y-57602367D01*
X106935930Y-57585908D01*
X106858193Y-57553125D01*
X106768232Y-57552551D01*
X106680000Y-57535000D01*
X98675000Y-57535000D01*
X98675000Y-54637440D01*
X99730000Y-54637440D01*
X99965317Y-54593162D01*
X100181441Y-54454090D01*
X100326431Y-54241890D01*
X100329081Y-54228803D01*
X100465910Y-54441441D01*
X100678110Y-54586431D01*
X100930000Y-54637440D01*
X102430000Y-54637440D01*
X102665317Y-54593162D01*
X102881441Y-54454090D01*
X103026431Y-54241890D01*
X103029851Y-54225000D01*
X106313808Y-54225000D01*
X106420910Y-54391441D01*
X106633110Y-54536431D01*
X106885000Y-54587440D01*
X108085000Y-54587440D01*
X108320317Y-54543162D01*
X108536441Y-54404090D01*
X108584134Y-54334289D01*
X108620910Y-54391441D01*
X108833110Y-54536431D01*
X109085000Y-54587440D01*
X110285000Y-54587440D01*
X110520317Y-54543162D01*
X110736441Y-54404090D01*
X110858808Y-54225000D01*
X159018420Y-54225000D01*
X162310000Y-57516579D01*
X162310000Y-67100601D01*
X161987200Y-67233980D01*
X161386091Y-67834041D01*
X161060372Y-68618459D01*
X161059630Y-69467815D01*
X161383980Y-70252800D01*
X161984041Y-70853909D01*
X162768459Y-71179628D01*
X163617815Y-71180370D01*
X164402800Y-70856020D01*
X165003909Y-70255959D01*
X165329628Y-69471541D01*
X165330370Y-68622185D01*
X165006020Y-67837200D01*
X164405959Y-67236091D01*
X164080000Y-67100741D01*
X164080000Y-57150005D01*
X164080001Y-57150000D01*
X164012633Y-56811326D01*
X164012633Y-56811325D01*
X163820790Y-56524210D01*
X163820787Y-56524208D01*
X160010790Y-52714210D01*
X159974557Y-52690000D01*
X159723675Y-52522367D01*
X159667484Y-52511190D01*
X159385000Y-52454999D01*
X159384995Y-52455000D01*
X110856192Y-52455000D01*
X110749090Y-52288559D01*
X110536890Y-52143569D01*
X110285000Y-52092560D01*
X109085000Y-52092560D01*
X108849683Y-52136838D01*
X108633559Y-52275910D01*
X108585866Y-52345711D01*
X108549090Y-52288559D01*
X108336890Y-52143569D01*
X108085000Y-52092560D01*
X106885000Y-52092560D01*
X106649683Y-52136838D01*
X106433559Y-52275910D01*
X106311192Y-52455000D01*
X103033222Y-52455000D01*
X103033162Y-52454683D01*
X102894090Y-52238559D01*
X102681890Y-52093569D01*
X102430000Y-52042560D01*
X100930000Y-52042560D01*
X100694683Y-52086838D01*
X100478559Y-52225910D01*
X100333569Y-52438110D01*
X100330919Y-52451197D01*
X100194090Y-52238559D01*
X99981890Y-52093569D01*
X99730000Y-52042560D01*
X98230000Y-52042560D01*
X97994683Y-52086838D01*
X97778559Y-52225910D01*
X97633569Y-52438110D01*
X97623439Y-52488131D01*
X97451325Y-52522367D01*
X97164210Y-52714210D01*
X96972367Y-53001325D01*
X96905000Y-53340000D01*
X94107000Y-53340000D01*
X94107000Y-50927000D01*
X173973000Y-50927000D01*
X173973000Y-100203000D01*
M02*
